<svg width="21" height="20" viewBox="0 0 21 20" fill="none" xmlns="http://www.w3.org/2000/svg">
<path d="M9.7763 13.8791C9.60539 14.05 9.37448 14.1455 9.13358 14.1455C8.89267 14.1455 8.66085 14.05 8.49085 13.8791L5.35176 10.74C4.9963 10.3845 4.9963 9.81 5.35176 9.45455C5.70721 9.09909 6.28176 9.09909 6.63721 9.45455L9.13358 11.9509L20.2554 0.828182C19.9318 0.330909 19.3718 0 18.7336 0H2.36994C1.36539 0 0.551758 0.813636 0.551758 1.81818V18.1818C0.551758 19.1864 1.36539 20 2.36994 20H18.7336C19.7381 20 20.5518 19.1864 20.5518 18.1818V3.10364L9.7763 13.8791Z" fill="#4CB93A" fill-opacity="0.76"/>
</svg>
